<svg xmlns="http://www.w3.org/2000/svg" enable-background="new 0 0 512 512" viewBox="0 0 512 512" id="attachment">
  <path fill="#fff" d="M372.071,10.481L146.808,9.915c-13.155-0.032-23.845,10.608-23.874,23.763l-0.995,443.791
			c-0.029,13.152,10.608,23.838,23.76,23.87l305.806,0.746c13.155,0.031,23.843-10.608,23.873-23.763l0.816-363.776L372.071,10.481z
			"></path>
  <path fill="#47aacb" d="M395.336,114.433l80.539,0L371.519,10.602v80.015C371.519,103.77,382.182,114.433,395.336,114.433z
			"></path>
  <polygon fill="#90cddf" points="475.901 114.461 445.735 114.461 371.513 40.556 371.513 10.63"></polygon>
  <path fill="#3a3d3f" d="M481.809,108.93L377.682,4.864c-1.488-1.481-3.496-2.318-5.589-2.322l-225.27-0.566
			c-0.023,0-0.047,0-0.07,0c-17.481,0-31.722,14.198-31.761,31.683l-0.09,40.156H99.549c-39.27,0-71.684,31.706-71.684,71.684
			c0,39.482,32.156,71.603,71.684,71.603h15.032L114,477.449c-0.039,17.504,14.171,31.784,31.683,31.83l305.808,0.744
			c0.023,0,0.047,0,0.078,0c8.45,0,16.404-3.283,22.396-9.248c6.016-5.989,9.334-13.958,9.349-22.435l0.822-363.775
			C484.143,112.453,483.305,110.426,481.809,108.93z M456.638,106.495h-61.304c-8.752,0-15.876-7.124-15.876-15.88V29.699
			L456.638,106.495z M99.549,201.227c-30.776,0-55.808-25.001-55.808-55.726c0-31.081,25.182-55.808,55.808-55.808h15.317
			l-0.058,25.931H99.061c-16.187,0-29.35,13.163-29.35,29.346s13.163,29.35,29.35,29.35h15.616l-0.06,26.908H99.549z
			 M202.746,158.439c-0.007,0-0.013,0.004-0.019,0.004h-72.138l0.061-26.943h72.104c4.388,0,7.938-3.554,7.938-7.938
			c0-4.384-3.55-7.938-7.938-7.938h-72.069l0.058-25.931h72.003c22.515,0,33.85,17.187,33.888,34.373
			C236.674,141.252,225.416,158.439,202.746,158.439z M114.713,158.443H99.061c-7.427,0-13.473-6.043-13.473-13.473
			c0-7.427,6.047-13.469,13.473-13.469h15.712L114.713,158.443z M462.762,489.523c-2.992,2.985-6.969,4.624-11.202,4.624
			c-0.008,0-0.023,0-0.039,0l-305.8-0.744c-8.76-0.023-15.869-7.163-15.845-15.915c0.178-79.605,0.516-230.985,0.678-303.168h72.2
			c0.01,0,0.018-0.006,0.028-0.006c33.138-0.023,49.71-25.134,49.714-50.246c0.004-25.125-16.579-50.252-49.749-50.252h-71.968
			l0.09-40.117c0.023-8.744,7.14-15.845,15.884-15.845c0.008,0,0.023,0,0.031,0l216.797,0.545v72.217
			c0,17.512,14.241,31.757,31.753,31.757h72.907l-0.804,355.933C467.429,482.546,465.77,486.53,462.762,489.523z"></path>
  <path fill="#3a3d3f" d="M376.457 427.393h-99.212c-4.388 0-7.938 3.554-7.938 7.938 0 4.384 3.551 7.938 7.938 7.938h99.212c4.388 0 7.938-3.554 7.938-7.938C384.395 430.947 380.845 427.393 376.457 427.393zM248.632 427.393H180.87c-4.388 0-7.938 3.554-7.938 7.938 0 4.384 3.55 7.938 7.938 7.938h67.762c4.388 0 7.938-3.554 7.938-7.938C256.57 430.947 253.019 427.393 248.632 427.393zM417.265 427.393H405.07c-4.388 0-7.938 3.554-7.938 7.938 0 4.384 3.551 7.938 7.938 7.938h12.194c4.388 0 7.938-3.554 7.938-7.938C425.203 430.947 421.652 427.393 417.265 427.393zM221.677 359.577c-4.388 0-7.938 3.554-7.938 7.938s3.551 7.938 7.938 7.938h107.151c4.388 0 7.938-3.554 7.938-7.938s-3.551-7.938-7.938-7.938H221.677zM180.87 375.453h12.194c4.388 0 7.938-3.554 7.938-7.938s-3.55-7.938-7.938-7.938H180.87c-4.388 0-7.938 3.554-7.938 7.938S176.482 375.453 180.87 375.453zM417.265 359.577h-59.824c-4.388 0-7.938 3.554-7.938 7.938s3.551 7.938 7.938 7.938h59.824c4.388 0 7.938-3.554 7.938-7.938S421.652 359.577 417.265 359.577zM384.395 299.703c0-4.384-3.55-7.938-7.938-7.938h-99.212c-4.388 0-7.938 3.554-7.938 7.938s3.551 7.938 7.938 7.938h99.212C380.845 307.641 384.395 304.087 384.395 299.703zM180.87 307.641h67.762c4.388 0 7.938-3.554 7.938-7.938s-3.551-7.938-7.938-7.938H180.87c-4.388 0-7.938 3.554-7.938 7.938S176.482 307.641 180.87 307.641zM417.265 291.765H405.07c-4.388 0-7.938 3.554-7.938 7.938s3.551 7.938 7.938 7.938h12.194c4.388 0 7.938-3.554 7.938-7.938S421.652 291.765 417.265 291.765zM221.677 239.825h83.336c4.388 0 7.938-3.554 7.938-7.938 0-4.384-3.551-7.938-7.938-7.938h-83.336c-4.388 0-7.938 3.554-7.938 7.938C213.739 236.271 217.29 239.825 221.677 239.825zM180.87 239.825h12.194c4.388 0 7.938-3.554 7.938-7.938 0-4.384-3.55-7.938-7.938-7.938H180.87c-4.388 0-7.938 3.554-7.938 7.938C172.932 236.271 176.482 239.825 180.87 239.825zM417.265 223.949h-83.638c-4.388 0-7.938 3.554-7.938 7.938 0 4.384 3.55 7.938 7.938 7.938h83.638c4.388 0 7.938-3.554 7.938-7.938C425.203 227.503 421.652 223.949 417.265 223.949z"></path>
</svg>
