<svg xmlns="http://www.w3.org/2000/svg" enable-background="new 0 0 128 128" viewBox="0 0 128 128" id="broom">
  <path fill="#fbb381" d="M110.3,7.7L72.9,69.9c-0.1-0.1-0.2-0.1-0.3-0.2l-6.4-3.8c-0.1-0.1-0.2-0.1-0.3-0.2l37.4-62.2c1.2-1.9,3.7-2.6,5.6-1.4S111.5,5.8,110.3,7.7z"></path>
  <path fill="#fb9958" d="M65.9 66.4l.3.2C66.1 66.6 66 66.5 65.9 66.4L65.9 66.4zM110.3 7.7L72.9 69.9c-.1-.1-.2-.1-.3-.2L69.8 68l37.4-62.2c.8-1.4.8-3 0-4.3.6 0 1.2.2 1.8.6C110.8 3.2 111.5 5.8 110.3 7.7zM69.8 68.7L69.8 68.7c-.1-.1-.2-.1-.3-.2L69.8 68.7z"></path>
  <path fill="#7c8b8e" d="M73.8,74.6l-4.3,7.1l-12.5-7.5l4.3-7.1c1-1.7,3.2-2.2,4.9-1.2l6.4,3.8C74.3,70.7,74.9,72.9,73.8,74.6z"></path>
  <path fill="#516468" d="M73.8,74.6l-4.3,7.1L66.7,80l4.3-7.1c1-1.7,0.5-3.9-1.2-4.9l2.9,1.7C74.3,70.7,74.9,72.9,73.8,74.6z"></path>
  <path fill="#fedd8e" d="M72.7,100.9c-0.9,1.3-7.2,13.8-21.5,25.6L17.1,106c2.8-2.3,5.5-4.8,8-7.4c8.3-8.7,13-17.3,13.5-18.2C44.3,71,56.5,68,65.9,73.6C75.3,79.3,78.4,91.5,72.7,100.9z"></path>
  <path fill="#fdd367" d="M72.7,100.9l-1.2,2.1c-5.4,9-12.2,16.9-20.3,23.5l-5.8-3.5c8-6.6,14.9-14.6,20.3-23.5l1.2-2.1c5.1-8.4,3.1-19.1-4.1-25.3c1,0.4,2,0.9,3,1.5C75.3,79.3,78.4,91.5,72.7,100.9z"></path>
  <path fill="#fc898c" d="M72.7,100.9L38.6,80.4C44.3,71,56.5,68,65.9,73.6C75.3,79.3,78.4,91.5,72.7,100.9z"></path>
  <path fill="#f96364" d="M72.7,100.9L67,97.5c5.1-8.4,3.2-19.1-4.1-25.3c1,0.4,2,0.9,3,1.5C75.3,79.3,78.4,91.5,72.7,100.9z"></path>
  <path fill="#333" d="M109.4,1.2c-2.4-1.4-5.5-0.7-7,1.7l-37,61.5c-1.9-0.4-3.9,0.3-5,2.1L58.4,70c-7.9-1.1-16.2,2.5-20.7,9.9c0,0,0,0,0,0c-1,1.6-7.2,13.8-21.3,25.3c-0.5,0.4-0.5,1.3,0.1,1.6l34.1,20.5c0.4,0.2,0.8,0.2,1.2-0.1c14.3-11.9,20.9-24.7,21.7-25.8c4.5-7.5,3.7-16.5-0.9-22.9l2.1-3.4c1-1.7,0.8-3.9-0.5-5.4l37-61.5C112.6,5.8,111.8,2.7,109.4,1.2z M72.3,99.5L40,80.1c5.7-8.4,16.8-10.8,25.4-5.6C74.1,79.7,77,90.8,72.3,99.5z M51.1,125.3l-5-3c4.9-4.2,9.4-8.9,13.3-14c0.3-0.4,0.3-1.1-0.2-1.4c-0.4-0.3-1.1-0.3-1.4,0.2c-4,5.2-8.6,10-13.6,14.1l-5-3c4.9-4.2,9.4-8.9,13.3-14c0.3-0.4,0.3-1.1-0.2-1.4c-0.4-0.3-1.1-0.3-1.4,0.2c-4,5.2-8.6,9.9-13.6,14.1l-5-3c4.9-4.2,9.4-8.9,13.3-14c0.3-0.4,0.3-1.1-0.2-1.4c-0.4-0.3-1.1-0.3-1.4,0.2c-4,5.2-8.6,9.9-13.6,14.1l-5-3c4.9-4.2,9.4-8.9,13.3-14c0.3-0.4,0.3-1.1-0.2-1.4c-0.4-0.3-1.1-0.3-1.4,0.2c-4,5.2-8.6,9.9-13.6,14.1l-5-3c2.4-2.1,4.8-4.3,7-6.6c8.3-8.6,12.7-16.8,13.1-17.5l32.4,19.5C70.6,102.4,65.2,113.5,51.1,125.3z M73,74l-1.7,2.8c-1.4-1.6-3-3-4.9-4.1c-1.9-1.1-3.8-1.9-5.9-2.4l1.7-2.8c0.7-1.2,2.3-1.6,3.5-0.9l6.4,3.8C73.3,71.2,73.7,72.8,73,74z M109.5,7.2L72.6,68.5l-5.3-3.2L104.2,4c0.9-1.5,2.8-1.9,4.2-1.1C109.9,3.8,110.3,5.7,109.5,7.2z"></path>
</svg>
