<svg xmlns="http://www.w3.org/2000/svg" xml:space="preserve" id="letter-q" x="0" y="0" enable-background="new 0 0 75 75" version="1.1" viewBox="0 0 75 75">
  <g>
    <g>
      <path d="M59.49,5.5H15.52C9.98,5.5,5.5,9.98,5.5,15.52v43.96c0,5.54,4.48,10.02,10.02,10.02h43.96c5.54,0,10.02-4.48,10.02-10.02
			V15.51C69.5,9.98,65.02,5.5,59.49,5.5z M63.7,58.07c0,3.1-2.52,5.63-5.63,5.63H16.94c-3.11,0-5.64-2.53-5.64-5.63V16.93
			c0-3.1,2.53-5.63,5.64-5.63h41.14c3.1,0,5.62,2.52,5.62,5.63V58.07z"></path>
    </g>
  </g>
  <g>
    <path d="M37.5,16.05c12.75,0,19.67,8.48,19.67,19.88c0,5.73-1.73,11.24-5.35,15.02l3.4,3.19c0.43,0.38,0.7,0.92,0.7,1.51
		c0,1.51-1.46,3.3-3.03,3.3c-1.3,0-1.78-0.43-2.54-1.13l-3.4-3.19c-2.65,1.4-5.78,2.16-9.46,2.16c-13.94,0-19.67-9.08-19.67-20.86
		C17.83,24.53,24.75,16.05,37.5,16.05z M37.5,49.66c1.35,0,2.54-0.16,3.57-0.49l-3.03-2.81c-0.43-0.38-0.7-0.92-0.7-1.51
		c0-1.51,1.46-3.3,3.03-3.3c1.3,0,1.78,0.43,2.54,1.13l3.08,2.81c1.62-2.43,2.32-5.84,2.32-9.56c0-7.46-3.57-12.75-10.81-12.75
		s-10.81,5.29-10.81,12.75C26.69,43.39,29.18,49.66,37.5,49.66z"></path>
  </g>
</svg>
