<svg xmlns="http://www.w3.org/2000/svg" viewBox="0 0 24 24" id="unsafe">
  <path d="M19.2753906,15.6660156c-.390625-.390625-1.0234375-.390625-1.4140625,0l-.4125977,.4125977-.3540039-.3540039c-.390625-.390625-1.0234375-.390625-1.4140625,0s-.390625,1.0234375,0,1.4140625l.3540039,.3540039-.3686523,.3686523c-.390625,.390625-.390625,1.0234375,0,1.4140625,.1953125,.1953125,.4511719,.2929688,.7070312,.2929688s.5117188-.0976562,.7070312-.2929688l.3686523-.3686523,.4125977,.4125977c.1953125,.1953125,.4511647,.2929688,.7070312,.2929688,.2558594,0,.5117188-.0976562,.7070312-.2929688,.390625-.390625,.390625-1.0234375,0-1.4140625l-.4125977-.4125977,.4125977-.4125977c.390625-.390625,.390625-1.0234375,0-1.4140625Z"></path>
  <path d="M21.7783203,14.0566406c-.0585938-.0771484-.1289062-.1552734-.2001953-.2333984l-.7363281,.6767578,.6640625-.7558594c-.2998047-.328125-.6220703-.6015625-.9560547-.8134766-.0019531-.0019531-.0048828-.0039062-.0078125-.0058594-.0185547-.0136719-.0371094-.0273438-.0566406-.0400391-.0126953-.0087891-.0263672-.0166016-.0390625-.0253906-.0093384-.0057373-.0196533-.0097656-.0289917-.0155029,.411377-1.7617188,.6126099-3.5403442,.5309448-4.9835205-.09375-1.5791016-1.1044922-2.9589844-2.5742188-3.515625l-6.0195312-2.2802734c-.2275391-.0859375-.4785156-.0849609-.7060547-.0009766l-6.0351562,2.2675781c-1.5351562,.5673828-2.5527344,1.9902344-2.5927734,3.6152344-.0986328,2.8886719,.8945312,8.6591797,3.9746094,11.8457031,1.4160156,1.4648438,3.0859375,2.2080078,4.9648438,2.2080078,.696106,0,1.3671265-.1026611,2.0039062-.3043823,.0275879,.0223999,.0432739,.0429688,.0761719,.0651245,.9628906,.7998047,2.1875,1.2392578,3.4599609,1.2392578,1.3378906,0,2.6171875-.4794922,3.5898438-1.3398438,1.2138672-1.0371094,1.9101562-2.5537109,1.9101562-4.1601562,0-.8613281-.2041016-1.7167969-.5917969-2.4775391-.1914062-.3720703-.4140625-.7109375-.6298828-.9658203Zm-9.8183594,5.9433594c-1.3154297,0-2.5019531-.5380859-3.5273438-1.5976562-2.5097656-2.5966797-3.5068359-7.6376953-3.4130859-10.3974609,.0195312-.8105469,.5253906-1.515625,1.2919922-1.7988281l5.6875-2.1376953,5.6669922,2.1474609c.7333984,.2773438,1.2382812,.9697266,1.2861328,1.7607422,.0654297,1.1611328-.0830078,2.6484375-.4033203,4.1230469-.302124-.0585938-.6081543-.0806274-.9144897-.0861816-.0454102-.0010986-.0887451-.0134277-.1343384-.0134277-.1169434,0-.2320557,.0114746-.3479004,.0187988-.0189819,.0013428-.0378418,.0015869-.0568237,.0030518-.9594116,.0703735-1.8706055,.3886108-2.6514282,.9130249-.012146,.0080566-.0241089,.0161743-.0362549,.024292-.1685181,.1151733-.3302002,.2393799-.4851074,.3734131-.0308838,.0264282-.0628662,.0511475-.0932007,.0783081-.1681519,.1523438-.329895,.312439-.4786987,.4865723-.8710938,.9853516-1.3505859,2.2646484-1.3505859,3.6025391,0,.6386719,.1044922,1.2460938,.2988281,1.7685547,.0734253,.2266846,.1670532,.4460449,.2699585,.6531982,.0061646,.0123901,.0099487,.0269165,.0161743,.0391846-.2021484,.0263672-.4101562,.0390625-.625,.0390625Zm7.8183594,.1513672c-1.2197266,1.0761719-3.2597656,1.1005859-4.4980469,.0390625-.0244141-.0205078-.0488281-.0400391-.0751953-.0585938,0,0-.0009766,0-.0009766-.0009766-.0849609-.0771484-.1621094-.1533203-.296875-.2978516-.1386719-.1386719-.2392578-.2675781-.3554688-.46875-.1533203-.2294922-.2714844-.46875-.3632812-.7509766-.125-.3378906-.1884766-.7119141-.1884766-1.1132812,0-.8496094,.3017578-1.6582031,.859375-2.2910156,.8614502-1.007019,2.3067017-1.4124146,3.5674438-1.078125,.1522217,.0406494,.3033447,.086731,.4491577,.1494141,.0003662,.0001221,.0007324,.000061,.0010986,.0001831,.177063,.0767822,.3380737,.1695557,.4998779,.2693481,.0029297,.0019531,.0058594,.0048828,.0087891,.0068359,.0244141,.0185547,.0498047,.0361328,.0761719,.0517578,.1914062,.1191406,.3837891,.2832031,.5566406,.4716797l.0869141,.0966797c.0273438,.0292969,.0546875,.0576172,.109375,.1269531,.1523438,.1806641,.2919922,.3945312,.4140625,.6308594,.2421875,.4765625,.3710938,1.0185547,.3710938,1.5654297,0,1.0214844-.4404297,1.9833984-1.2216797,2.6513672Z"></path>
</svg>
