<svg xmlns="http://www.w3.org/2000/svg" viewBox="0 0 128 128" id="upgrade">
  <g>
    <path fill="#949aaf" d="M114.43,52,126,45.34,111.15,19.66,99.6,26.33a51.68,51.68,0,0,0-20.78-12V1H49.18V14.29a51.68,51.68,0,0,0-20.78,12L16.85,19.66,2,45.34,13.57,52a50.34,50.34,0,0,0,0,24L2,82.66l14.82,25.68,11.55-6.67a51.68,51.68,0,0,0,20.78,12V127H78.82V113.71a51.68,51.68,0,0,0,20.78-12l11.55,6.67L126,82.66,114.43,76A50.34,50.34,0,0,0,114.43,52Z"></path>
    <circle cx="64" cy="64" r="35" fill="#dde1e8"></circle>
    <path fill="#c7cdd8" d="M98.91,66.5a35,35,0,0,0-69.82,0,35,35,0,1,1,69.82,0Z"></path>
    <path fill="#8288a1" d="M126,82.66l-14.82,25.68L99.6,101.67a51.68,51.68,0,0,1-20.78,12V127H49.18V113.71a51.68,51.68,0,0,1-20.78-12l-11.55,6.67L2,82.66,13.57,76a50.87,50.87,0,0,1-1.41-13.91,52,52,0,0,0,103.68,0A50.87,50.87,0,0,1,114.43,76Z"></path>
    <polygon fill="#7aa8d7" points="64 36.43 45 55 55 55 55 75 73 75 73 55 83 55 64 36.43"></polygon>
    <rect width="18" height="7" x="55" y="82" fill="#7aa8d7"></rect>
    <rect width="18" height="3" x="55" y="86" fill="#5b8dc9"></rect>
    <rect width="18" height="4" x="55" y="71" fill="#5b8dc9"></rect>
  </g>
</svg>
