<svg xmlns="http://www.w3.org/2000/svg" fill-rule="evenodd" stroke-linejoin="round" stroke-miterlimit="2" clip-rule="evenodd" viewBox="0 0 64 64" id="protection-verification">
  <g transform="translate(-3028 -8)">
    <path d="M3059.39,69.905C3059.79,70.032 3060.21,70.032 3060.61,69.905C3068.44,67.397 3073.76,63.433 3077.15,58.355C3080.53,53.299 3082,47.103 3082,40L3082,19.5C3082,18.454 3081.19,17.585 3080.15,17.506C3066.57,16.476 3061.53,10.714 3061.53,10.714C3061.15,10.261 3060.59,10 3060,10C3059.41,10 3058.85,10.261 3058.47,10.714C3058.47,10.714 3053.43,16.476 3039.85,17.506C3038.81,17.585 3038,18.454 3038,19.5L3038,40C3038,47.103 3039.47,53.299 3042.85,58.355C3046.24,63.433 3051.56,67.397 3059.39,69.905ZM3060,65.894C3053.52,63.71 3049.04,60.414 3046.18,56.133C3043.21,51.695 3042,46.235 3042,40L3042,21.323C3051.99,20.224 3057.55,16.738 3060,14.736C3062.45,16.738 3068.01,20.224 3078,21.323C3078,21.323 3078,40 3078,40C3078,46.235 3076.79,51.695 3073.82,56.133C3070.96,60.414 3066.48,63.711 3060,65.894L3060,65.894ZM3050.59,41.414L3056.59,47.414C3057.37,48.195 3058.63,48.195 3059.41,47.414L3071.41,35.414C3072.2,34.634 3072.2,33.366 3071.41,32.586C3070.63,31.805 3069.37,31.805 3068.59,32.586L3058,43.172C3058,43.172 3053.41,38.586 3053.41,38.586C3052.63,37.805 3051.37,37.805 3050.59,38.586C3049.8,39.366 3049.8,40.634 3050.59,41.414Z"></path>
  </g>
</svg>
