<svg xmlns="http://www.w3.org/2000/svg" width="24" height="24" fill="none" viewBox="0 0 24 24" id="verified">
  <g clip-path="url(#clip0_1233_4741)">
    <path fill="url(#paint0_linear_1233_4741)" fill-rule="evenodd" d="M10.4525 1.31158C11.2527 0.334213 12.7474 0.334209 13.5476 1.31158L14.5394 2.52302L16.0041 1.9698C17.1858 1.52347 18.4801 2.27079 18.6844 3.5173L18.9377 5.06237L20.4827 5.3156C21.7293 5.51991 22.4766 6.81429 22.0302 7.99596L21.477 9.46065L22.6885 10.4525C23.6658 11.2527 23.6658 12.7473 22.6885 13.5475L21.477 14.5393L22.0302 16.004C22.4766 17.1857 21.7293 18.4801 20.4827 18.6844L18.9377 18.9376L18.6844 20.4827C18.4801 21.7292 17.1858 22.4765 16.0041 22.0302L14.5394 21.477L13.5476 22.6884C12.7474 23.6658 11.2527 23.6658 10.4525 22.6884L9.46071 21.477L7.99602 22.0302C6.81435 22.4765 5.51997 21.7292 5.31567 20.4827L5.06243 18.9376L3.51736 18.6844C2.27084 18.4801 1.52353 17.1857 1.96986 16.004L2.52309 14.5393L1.31164 13.5475C0.334274 12.7473 0.33427 11.2527 1.31164 10.4525L2.52309 9.46065L1.96986 7.99596C1.52353 6.81429 2.27085 5.51991 3.51736 5.3156L5.06243 5.06237L5.31567 3.5173C5.51997 2.27078 6.81436 1.52347 7.99602 1.9698L9.46071 2.52302L10.4525 1.31158ZM12.9919 3.79L12.0001 2.57855L11.0082 3.79C10.4643 4.45429 9.55717 4.69737 8.75402 4.39401L7.28933 3.84078L7.0361 5.38585C6.89724 6.23308 6.23315 6.89718 5.38591 7.03604L3.84085 7.28927L4.39407 8.75396C4.69743 9.55711 4.45436 10.4643 3.79006 11.0082L2.57861 12L3.79006 12.9918C4.45436 13.5357 4.69743 14.4429 4.39407 15.246L3.84085 16.7107L5.38591 16.9639C6.23314 17.1028 6.89724 17.7669 7.0361 18.6141L7.28933 20.1592L8.75402 19.606C9.55717 19.3026 10.4643 19.5457 11.0082 20.21L12.0001 21.4214L12.9919 20.21C13.5358 19.5457 14.4429 19.3026 15.2461 19.606L16.7108 20.1592L16.964 18.6141C17.1029 17.7669 17.767 17.1028 18.6142 16.9639L20.1593 16.7107L19.606 15.246C19.3027 14.4429 19.5457 13.5357 20.21 12.9918L21.4215 12L20.21 11.0082C19.5457 10.4643 19.3027 9.55711 19.606 8.75396L20.1593 7.28927L18.6142 7.03604C17.767 6.89718 17.1029 6.23309 16.964 5.38585L16.7108 3.84078L15.2461 4.39401C14.4429 4.69737 13.5358 4.45429 12.9919 3.79ZM18.2072 7.79288C18.5977 8.18341 18.5977 8.81657 18.2072 9.2071L11.2072 16.2071C10.8166 16.5976 10.1835 16.5976 9.79294 16.2071L5.79294 12.2071C5.40242 11.8166 5.40242 11.1834 5.79294 10.7929C6.18347 10.4024 6.81663 10.4024 7.20716 10.7929L10.5001 14.0858L16.7929 7.79288C17.1835 7.40236 17.8166 7.40236 18.2072 7.79288Z" clip-rule="evenodd"></path>
  </g>
  <defs>
    <linearGradient id="paint0_linear_1233_4741" x1="12" x2="12" y1=".579" y2="23.421" gradientUnits="userSpaceOnUse">
      <stop stop-color="#57EAEA"></stop>
      <stop offset="1" stop-color="#2BC9FF"></stop>
    </linearGradient>
    <clipPath id="clip0_1233_4741">
      <rect width="24" height="24" fill="#fff"></rect>
    </clipPath>
  </defs>
</svg>
